HIERARCHY
ROOT Hips
{
	OFFSET 0.000000 0.000000 0.000000
	CHANNELS 6 Xposition Yposition Zposition Yrotation Xrotation Zrotation
	JOINT Chest
	{
		OFFSET 0.000000 -0.009281 11.569106
		CHANNELS 3 Yrotation Xrotation Zrotation
		JOINT Chest2
		{
			OFFSET -0.000000 0.016865 9.269641
			CHANNELS 3 Yrotation Xrotation Zrotation
			JOINT Chest3
			{
				OFFSET -0.000000 0.000001 8.374491
				CHANNELS 3 Yrotation Xrotation Zrotation
				JOINT Chest4
				{
					OFFSET -0.000000 0.000001 8.374493
					CHANNELS 3 Yrotation Xrotation Zrotation
					JOINT Neck
					{
						OFFSET -0.000000 0.000002 12.152554
						CHANNELS 3 Yrotation Xrotation Zrotation
						JOINT Head
						{
							OFFSET -0.000000 0.040101 7.802319
							CHANNELS 3 Yrotation Xrotation Zrotation
							End Site
							{
								OFFSET -0.000000 0.020947 14.853096
							}
						}
					}
					JOINT RightCollar
					{
						OFFSET 2.894404 0.000001 6.791374
						CHANNELS 3 Yrotation Xrotation Zrotation
						JOINT RightShoulder
						{
							OFFSET 13.574684 0.000001 0.000000
							CHANNELS 3 Yrotation Xrotation Zrotation
							JOINT RightElbow
							{
								OFFSET 23.923903 0.000002 0.000000
								CHANNELS 3 Yrotation Xrotation Zrotation
								JOINT RightWrist
								{
									OFFSET 19.846718 0.012767 0.000000
									CHANNELS 3 Yrotation Xrotation Zrotation
									End Site
									{
										OFFSET 14.973145 0.000001 0.000000
									}
								}
							}
						}
					}
					JOINT LeftCollar
					{
						OFFSET -2.894404 0.000001 6.791374
						CHANNELS 3 Yrotation Xrotation Zrotation
						JOINT LeftShoulder
						{
							OFFSET -13.574684 -0.000001 0.000000
							CHANNELS 3 Yrotation Xrotation Zrotation
							JOINT LeftElbow
							{
								OFFSET -23.923903 -0.000002 0.000000
								CHANNELS 3 Yrotation Xrotation Zrotation
								JOINT LeftWrist
								{
									OFFSET -19.846718 0.012763 0.000000
									CHANNELS 3 Yrotation Xrotation Zrotation
									End Site
									{
										OFFSET -14.973145 -0.000001 0.000000
									}
								}
							}
						}
					}
				}
			}
		}
	}
	JOINT RightHip
	{
		OFFSET 9.469263 0.004643 0.045487
		CHANNELS 3 Yrotation Xrotation Zrotation
		JOINT RightKnee
		{
			OFFSET 0.000000 0.002661 -40.478676
			CHANNELS 3 Yrotation Xrotation Zrotation
			JOINT RightAnkle
			{
				OFFSET 0.000000 0.049106 -35.224068
				CHANNELS 3 Yrotation Xrotation Zrotation
				JOINT RightToe
				{
					OFFSET -0.000001 12.539529 -6.151390
					CHANNELS 3 Yrotation Xrotation Zrotation
					End Site
					{
						OFFSET -0.000001 5.044994 -1.291870
					}
				}
			}
		}
	}
	JOINT LeftHip
	{
		OFFSET -9.469263 0.004641 0.045487
		CHANNELS 3 Yrotation Xrotation Zrotation
		JOINT LeftKnee
		{
			OFFSET 0.000000 0.002661 -40.478676
			CHANNELS 3 Yrotation Xrotation Zrotation
			JOINT LeftAnkle
			{
				OFFSET 0.000000 0.049106 -35.224068
				CHANNELS 3 Yrotation Xrotation Zrotation
				JOINT LeftToe
				{
					OFFSET -0.000001 12.539529 -6.151390
					CHANNELS 3 Yrotation Xrotation Zrotation
					End Site
					{
						OFFSET -0.000001 5.044994 -1.291870
					}
				}
			}
		}
	}
}
MOTION
Frames: 13
Frame Time: 0.016667
-42.573334 40.905273 83.199440 2.433603 1.160419 -94.667651 -2.149194 -3.381773 -1.119207 -0.949364 -1.430026 -0.014660 -0.949364 -1.430027 -0.014659 -0.712020 -1.072501 -0.013215 5.472278 -19.923786 -7.966879 7.528568 -0.688268 -12.842428 8.648791 3.776510 -1.561168 47.461711 -17.992860 -12.338452 24.811994 -37.523990 44.946838 -27.614749 38.638469 67.336841 -7.118538 4.750633 -3.714103 -42.520106 -6.122701 13.330429 -39.624055 -57.235650 -22.393561 16.055174 14.372962 -57.303983 4.058169 2.798362 -18.988908 5.120525 -8.456977 -9.733869 2.460932 5.346761 14.223674 -3.692743 -1.699696 -0.684900 -12.964634 15.524979 -14.167295 -4.103531 -5.911819 12.477725 7.253716 -25.530153 4.329562 5.967860 19.250560 1.302715 
-43.118801 41.085876 83.064056 2.492004 1.105174 -94.515680 -2.077589 -3.453209 -1.240364 -0.931519 -1.447278 -0.007100 -0.931519 -1.447277 -0.007101 -0.698619 -1.085450 -0.007531 5.504176 -19.954042 -7.929888 7.599809 -0.742175 -12.765374 8.614756 3.731719 -1.585227 47.423632 -18.003250 -12.217112 24.792548 -37.554573 45.052006 -27.618131 38.678528 67.341499 -7.121334 4.767417 -3.720637 -42.543616 -6.117151 13.296936 -39.600457 -57.236804 -22.405665 16.063630 14.345547 -57.289619 3.945848 3.409368 -18.962038 5.261156 -8.913345 -9.794660 2.094226 5.932113 13.987847 -2.707766 -1.892493 -0.722981 -13.069699 16.291972 -14.760500 -4.368990 -6.420270 12.716649 7.548328 -25.895219 4.464475 5.773353 19.394735 1.315024 
-43.645870 41.285278 82.921532 2.530243 1.071632 -94.405550 -2.033968 -3.525102 -1.325793 -0.918556 -1.461075 -0.004289 -0.918556 -1.461075 -0.004288 -0.688890 -1.095804 -0.005414 5.549331 -20.001215 -7.893650 7.695947 -0.826751 -12.685827 8.577434 3.674258 -1.612849 47.389632 -17.995581 -12.106883 24.752763 -37.588809 45.165862 -27.625171 38.689548 67.333747 -7.130805 4.783830 -3.728774 -42.564182 -6.148202 13.275988 -39.538541 -57.235165 -22.453861 16.063826 14.332626 -57.299154 3.811952 4.057951 -18.817588 5.406355 -9.461391 -9.862031 1.630981 6.519519 13.609715 -1.876620 -1.996656 -0.782785 -13.217470 17.047713 -15.417764 -4.639733 -6.947392 13.103753 7.833611 -26.247153 4.592288 5.597904 19.560736 1.312903 
-44.184555 41.484749 82.778839 2.606451 1.025971 -94.375408 -1.986119 -3.546785 -1.342289 -0.909146 -1.473345 -0.006159 -0.909146 -1.473345 -0.006158 -0.681837 -1.105001 -0.006811 5.600011 -20.058894 -7.855769 7.803209 -0.930566 -12.601801 8.546401 3.622465 -1.650805 47.344621 -17.987141 -12.000315 24.713334 -37.630009 45.274322 -27.632292 38.681240 67.321158 -7.136954 4.778805 -3.742562 -42.574861 -6.169824 13.244517 -39.462067 -57.249034 -22.511515 16.069755 14.336808 -57.335340 3.652024 4.822659 -18.378181 5.613423 -10.138917 -10.151378 1.074673 7.063280 13.301196 -1.164276 -2.001400 -0.794263 -13.347907 17.869593 -16.103583 -4.917258 -7.495834 13.567018 8.044795 -26.576480 4.818529 5.450767 19.723582 1.309884 
-44.724972 41.701485 82.639107 2.665371 0.973472 -94.394191 -1.942841 -3.571428 -1.326903 -0.899132 -1.487018 -0.008764 -0.899132 -1.487017 -0.008764 -0.674332 -1.115254 -0.008761 5.648209 -20.124509 -7.816951 7.906613 -1.049283 -12.517062 8.525286 3.590158 -1.685236 47.291157 -17.970156 -11.910068 24.688894 -37.684397 45.368589 -27.645051 38.671561 67.309172 -7.143577 4.770218 -3.761715 -42.585345 -6.184335 13.219892 -39.355796 -57.272512 -22.580778 16.078545 14.346447 -57.384572 3.471698 5.635331 -17.718359 5.900131 -10.911699 -10.662445 0.461004 7.587945 12.995780 -0.581004 -1.951006 -0.807684 -13.494640 18.693548 -16.798435 -5.173987 -8.063207 14.025185 8.221281 -26.935833 5.096188 5.296560 19.911934 1.291119 
-45.266727 41.922337 82.496628 2.688275 0.916481 -94.473114 -1.895918 -3.604675 -1.275913 -0.889851 -1.502882 -0.010440 -0.889851 -1.502884 -0.010440 -0.667376 -1.127149 -0.010019 5.687314 -20.199308 -7.775989 7.994574 -1.185609 -12.431474 8.493384 3.541527 -1.722651 47.248056 -17.952298 -11.816985 24.655455 -37.738455 45.471937 -27.660279 38.669331 67.294644 -7.141792 4.732239 -3.758961 -42.602697 -6.196392 13.178249 -39.263332 -57.283782 -22.639005 16.086514 14.349591 -57.428538 3.270778 6.469077 -16.959039 6.253803 -11.787147 -11.225447 -0.278255 8.122824 12.589008 -0.042820 -1.864475 -0.761798 -13.634634 19.487798 -17.454344 -5.429953 -8.628522 14.442517 8.381350 -27.290313 5.417887 5.128191 20.087120 1.238516 
-45.796825 42.128010 82.343513 2.676027 0.863009 -94.608789 -1.847524 -3.660385 -1.185268 -0.886066 -1.524350 -0.006302 -0.886066 -1.524350 -0.006302 -0.664525 -1.143255 -0.006937 5.723801 -20.269193 -7.738300 8.076387 -1.313046 -12.352716 8.449730 3.484386 -1.765328 47.243083 -17.924011 -11.740200 24.585056 -37.776134 45.600556 -27.665872 38.652191 67.289016 -7.120430 4.677851 -3.764262 -42.613147 -6.192919 13.122232 -39.203606 -57.293427 -22.708096 16.113402 14.340682 -57.430560 3.140951 7.300980 -16.167252 6.548788 -12.696803 -11.631489 -1.205688 8.654911 12.030175 0.521896 -1.765421 -0.638622 -13.752071 20.250971 -18.053285 -5.713793 -9.210495 14.850093 8.516710 -27.554301 5.825955 4.950913 20.206519 1.150289 
-46.310032 42.308281 82.175705 2.654423 0.829884 -94.805785 -1.808441 -3.723341 -1.041597 -0.890276 -1.550699 0.002315 -0.890276 -1.550699 0.002314 -0.667660 -1.163030 -0.000523 5.754228 -20.323028 -7.703113 8.145414 -1.411177 -12.280240 8.391133 3.408847 -1.815204 47.266681 -17.885638 -11.664619 24.468897 -37.800886 45.759078 -27.666250 38.611356 67.285061 -7.084534 4.621889 -3.783176 -42.596977 -6.173180 13.059832 -39.202762 -57.314644 -22.784746 16.162984 14.310917 -57.391873 3.077430 8.097676 -15.393271 6.782871 -13.558647 -11.822268 -2.320934 9.173087 11.318175 1.110230 -1.688384 -0.447807 -13.844737 20.998308 -18.586917 -6.024422 -9.791124 15.269578 8.664087 -27.710552 6.237394 4.752859 20.246924 1.001240 
-46.795517 42.480297 81.995468 2.623351 0.847780 -94.924303 -1.810082 -3.800231 -0.978291 -0.901480 -1.578148 0.010283 -0.901480 -1.578147 0.010284 -0.676041 -1.183628 0.005384 5.779749 -20.363801 -7.667459 8.204854 -1.485401 -12.208254 8.354165 3.364346 -1.859773 47.292141 -17.874948 -11.605672 24.361999 -37.820202 45.889678 -27.670152 38.570413 67.288442 -7.065314 4.619451 -3.818706 -42.526527 -6.172982 13.030089 -39.258565 -57.349157 -22.842063 16.225434 14.257695 -57.379620 2.969038 8.899418 -14.760315 7.027921 -14.475729 -12.141266 -3.402802 9.752538 10.612341 1.578359 -1.653644 -0.289877 -14.008674 21.697827 -19.178230 -6.337734 -10.368762 15.702492 8.762905 -27.791746 6.602570 4.615436 20.239937 0.871079 
-47.277416 42.664856 81.809357 2.632482 0.899000 -95.043592 -1.850885 -3.835210 -0.921447 -0.912216 -1.599753 0.015118 -0.912216 -1.599752 0.015118 -0.684078 -1.199839 0.008950 5.794877 -20.406464 -7.628932 8.246330 -1.563688 -12.134287 8.374921 3.369286 -1.869778 47.278771 -17.889990 -11.561336 24.340487 -37.854117 45.929266 -27.682403 38.560151 67.299862 -7.078796 4.662881 -3.845639 -42.427274 -6.195180 13.027023 -39.281572 -57.416892 -22.869714 16.248356 14.244408 -57.454554 2.680755 9.862659 -14.187305 7.406591 -15.713007 -12.761676 -4.256065 10.393557 10.406615 1.834219 -1.566632 -0.201218 -14.191385 22.442654 -19.783778 -6.673456 -10.954114 16.121388 8.802458 -27.851544 6.888573 4.554224 20.212775 0.791309 
-47.753052 42.879234 81.622826 2.631156 0.935885 -95.176774 -1.898630 -3.856163 -0.870448 -0.913376 -1.615808 0.022244 -0.913376 -1.615808 0.022244 -0.684928 -1.211893 0.014266 5.794953 -20.467854 -7.590280 8.261507 -1.677439 -12.065037 8.420109 3.384126 -1.883097 47.253079 -17.942221 -11.503409 24.368153 -37.894849 45.923036 -27.687102 38.593171 67.336943 -7.099135 4.661520 -3.855460 -42.376683 -6.199101 12.999336 -39.205685 -57.483330 -22.869785 16.240832 14.304182 -57.637897 2.265599 10.911974 -13.773175 7.906174 -17.190466 -13.186735 -4.885429 10.984563 10.222573 1.838371 -1.408089 -0.207232 -14.379379 23.200013 -20.435318 -7.022853 -11.584527 16.532784 8.740139 -27.896847 7.239626 4.558288 20.192046 0.775797 
-48.205982 43.116680 81.433746 2.561044 0.925789 -95.317312 -1.916090 -3.910904 -0.836249 -0.900951 -1.635207 0.031756 -0.900951 -1.635208 0.031756 -0.675582 -1.226454 0.021404 5.775231 -20.542421 -7.549873 8.241943 -1.816601 -11.998846 8.454873 3.348636 -1.887281 47.226373 -17.987761 -11.429639 24.351330 -37.926685 45.986236 -27.698813 38.676223 67.377255 -7.126487 4.609041 -3.842338 -42.400489 -6.194106 12.961898 -38.999499 -57.504128 -22.923399 16.217099 14.383214 -57.839545 1.793125 11.876690 -13.742390 8.448699 -18.757354 -13.301568 -5.363673 11.546930 10.017723 1.699206 -1.241538 -0.183295 -14.580205 23.858838 -21.066935 -7.292432 -12.230704 16.887510 8.662892 -27.881122 7.596454 4.539381 20.040542 0.733056 
-48.593044 43.359863 81.235107 2.389498 0.890647 -95.306704 -1.909221 -4.041493 -0.957112 -0.882940 -1.659370 0.043939 -0.882940 -1.659370 0.043940 -0.662039 -1.244592 0.030554 5.748972 -20.617315 -7.514133 8.209100 -1.956658 -11.943136 8.452570 3.242981 -1.904065 47.236837 -18.004602 -11.355306 24.227118 -37.923276 46.166594 -27.709464 38.758342 67.406939 -7.089802 4.430858 -3.813166 -42.503103 -6.130519 12.869783 -38.709482 -57.482032 -23.082800 16.215035 14.423164 -57.956887 1.351968 12.660883 -14.195123 8.806086 -20.304252 -13.261849 -5.635954 12.184063 9.862659 1.507390 -1.166781 -0.101028 -14.867997 24.315743 -21.805580 -7.497559 -12.858544 17.211797 8.652486 -27.780403 7.898415 4.466058 19.749361 0.643379 
